<svg width="144" height="191" viewBox="0 0 144 191" fill="none" xmlns="http://www.w3.org/2000/svg">
<rect width="143" height="143" rx="10" transform="matrix(1 0 0 -1 0 173)" fill="black"/>
<path d="M46.44 112.928C42.5147 112.928 39.3147 112.032 36.84 110.24C34.4507 108.448 33.256 105.845 33.256 102.432C33.256 95.52 36.1147 89.9307 41.832 85.664C46.0987 82.592 50.2373 79.9893 54.248 77.856C58.344 75.6373 61.8853 72.864 64.872 69.536C66.3227 68.0853 67.1333 66.592 67.304 65.056C67.4747 63.4347 67.0053 62.1973 65.896 61.344C64.872 60.4907 63.592 60.2347 62.056 60.576C60.52 60.832 59.0267 61.6853 57.576 63.136C55.9547 64.5013 54.632 65.8667 53.608 67.232C52.584 68.5973 51.5173 70.1333 50.408 71.84C48.616 74.4853 46.312 77.0453 43.496 79.52C40.7653 81.9093 37.6507 83.104 34.152 83.104C29.7147 83.104 26.216 81.9093 23.656 79.52C21.1813 77.0453 19.944 73.7173 19.944 69.536C19.944 66.0373 21.1813 62.7947 23.656 59.808C26.216 56.736 29.7573 54.2613 34.28 52.384C38.888 50.5067 44.2213 49.568 50.28 49.568C60.776 49.568 68.328 51.616 72.936 55.712C77.6293 59.7227 79.976 64.8427 79.976 71.072C79.976 75.8507 78.952 79.776 76.904 82.848C74.856 85.8347 71.3573 88.9067 66.408 92.064C63.9333 93.6853 62.1413 95.3067 61.032 96.928C60.008 98.464 59.496 100.299 59.496 102.432C59.496 105.845 58.3013 108.448 55.912 110.24C53.5227 112.032 50.3653 112.928 46.44 112.928ZM30.312 135.712C30.312 131.189 31.7627 127.52 34.664 124.704C37.5653 121.888 41.4907 120.48 46.44 120.48C51.2187 120.48 55.016 121.888 57.832 124.704C60.648 127.435 62.056 131.061 62.056 135.584C62.056 140.021 60.6907 143.605 57.96 146.336C55.2293 149.067 51.3893 150.432 46.44 150.432C41.32 150.432 37.352 149.109 34.536 146.464C31.72 143.733 30.312 140.149 30.312 135.712ZM85.155 68.384C85.0697 65.312 85.5817 62.4533 86.691 59.808C87.8857 57.0773 89.8057 54.9013 92.451 53.28C95.0963 51.5733 98.5097 50.72 102.691 50.72C106.958 50.72 110.371 51.5733 112.931 53.28C115.576 54.9013 117.454 57.0773 118.563 59.808C119.758 62.4533 120.312 65.312 120.227 68.384C120.142 71.2 119.715 73.8453 118.947 76.32C118.179 78.7947 117.283 81.3547 116.259 84C115.235 86.56 114.296 89.4187 113.443 92.576C112.59 95.648 112.035 99.1893 111.779 103.2C111.523 106.528 110.584 109.003 108.963 110.624C107.342 112.16 105.251 112.928 102.691 112.928C100.046 112.928 97.9123 112.16 96.291 110.624C94.6697 109.088 93.7737 106.613 93.603 103.2C93.347 99.1893 92.7923 95.648 91.939 92.576C91.0857 89.4187 90.147 86.56 89.123 84C88.099 81.3547 87.203 78.7947 86.435 76.32C85.667 73.8453 85.2403 71.2 85.155 68.384ZM102.691 150.432C97.6563 150.432 93.731 149.109 90.915 146.464C88.099 143.733 86.691 140.149 86.691 135.712C86.691 131.189 88.099 127.52 90.915 124.704C93.8163 121.888 97.7417 120.48 102.691 120.48C107.47 120.48 111.267 121.888 114.083 124.704C116.899 127.435 118.307 131.061 118.307 135.584C118.307 140.021 116.942 143.605 114.211 146.336C111.48 149.067 107.64 150.432 102.691 150.432Z" fill="#06DEDE"/>
</svg>
